<svg width="16" height="16" viewBox="0 0 16 16" fill="none" xmlns="http://www.w3.org/2000/svg">
<path fill-rule="evenodd" clip-rule="evenodd" d="M7.99985 14.7493C7.80093 14.7493 7.61017 14.6703 7.46952 14.5297C7.32886 14.389 7.24985 14.1983 7.24985 13.9993V3.80934L4.52985 6.52934C4.38767 6.66182 4.19963 6.73394 4.00532 6.73052C3.81102 6.72709 3.62564 6.64838 3.48822 6.51096C3.35081 6.37355 3.2721 6.18816 3.26867 5.99386C3.26524 5.79956 3.33737 5.61151 3.46985 5.46934L7.46985 1.46934C7.61047 1.32889 7.8011 1.25 7.99985 1.25C8.1986 1.25 8.38922 1.32889 8.52985 1.46934L12.5298 5.46934C12.6623 5.61151 12.7345 5.79956 12.731 5.99386C12.7276 6.18816 12.6489 6.37355 12.5115 6.51096C12.3741 6.64838 12.1887 6.72709 11.9944 6.73052C11.8001 6.73394 11.612 6.66182 11.4698 6.52934L8.74985 3.80934V13.9993C8.74985 14.1983 8.67083 14.389 8.53018 14.5297C8.38952 14.6703 8.19876 14.7493 7.99985 14.7493Z" fill="#172762"/>
</svg>
